#!OML:ASF I:\Actors\actors\Patient Classification 1\Patient 1\Session 1\Subject1.ASF
:FULLY-SPECIFIED
:DEGREES
330
root 0.520462 17.5015 9.56864 6.34138 -2.22576 -9.25205
lowerback -1.71721 0.452651 5.99861
upperback -11.3435 1.04011 1.87178
thorax -11.1324 0.0426794 -1.40311
lowerneck 2.10241 -2.62861 -4.02485
upperneck -9.5642 -2.49753 14.5521
head -2.89788 -1.66105 5.17839
rclavicle -1.00386e-014 2.46493e-014
rhumerus 13.7079 25.0361 -57.0238
rradius 147.824
rwrist 19.7845
rhand -29.6021 -33.4826
rfingers 7.12502
rthumb -2.9332 -63.4421
lclavicle -1.00386e-014 2.46493e-014
lhumerus 14.718 -33.1295 65.1716
lradius 148.746
lwrist 5.27754
lhand -38.7429 -26.2365
lfingers 7.12502
lthumb -11.7557 3.41364
rfemur -2.96224 20.9413 27.736
rtibia 8.14979
rfoot -13.1464 -19.3934
rtoes -0.403055
lfemur 12.3606 -43.5068 -16.4114
ltibia -4.82809
lfoot -22.7883 51.5402
ltoes 8.21016
331
root 0.523219 17.5028 9.56545 6.41755 -2.28939 -9.30951
lowerback -1.75564 0.51381 6.08906
upperback -11.3067 1.12129 1.86765
thorax -11.0609 0.0758707 -1.46398
lowerneck 2.14126 -2.579 -4.0077
upperneck -10.6771 -2.29782 14.6346
head -3.25074 -1.60498 5.22334
rclavicle -8.94531e-016 -6.75868e-015
rhumerus 13.628 27.3207 -58.1945
rradius 147.34
rwrist 19.8755
rhand -29.8825 -33.8214
rfingers 7.12502
rthumb -3.204 -63.777
lclavicle -8.94531e-016 -6.75868e-015
lhumerus 13.9984 -35.2877 66.8686
lradius 148.489
lwrist 5.27923
lhand -38.8186 -26.2616
lfingers 7.12502
lthumb -11.8287 3.38431
rfemur -3.06624 20.9628 27.7537
rtibia 8.15008
rfoot -13.1227 -19.3271
rtoes -0.398566
lfemur 12.334 -43.6397 -16.3611
ltibia -4.8449
lfoot -23.0062 51.7182
ltoes 8.5292
332
root 0.526159 17.5051 9.56188 6.492 -2.29615 -9.38767
lowerback -1.79537 0.531456 6.1774
upperback -11.2699 1.1447 1.87912
thorax -10.993 0.081969 -1.50235
lowerneck 2.12431 -2.50789 -3.93669
upperneck -11.6986 -2.07086 14.7506
head -3.57159 -1.53471 5.26713
rclavicle -2.17669e-014 4.41302e-014
rhumerus 13.7351 29.5202 -59.2662
rradius 146.808
rwrist 19.4624
rhand -30.0713 -33.7468
rfingers 7.12502
rthumb -3.38634 -63.6997
lclavicle -2.17669e-014 4.41302e-014
lhumerus 13.3067 -37.4087 68.5407
lradius 148.223
lwrist 5.6652
lhand -38.3291 -26.4235
lfingers 7.12502
lthumb -11.3567 3.24898
rfemur -3.17615 20.9616 27.7984
rtibia 8.17845
rfoot -13.1254 -19.3161
rtoes -0.488388
lfemur 12.1951 -43.6474 -16.1718
ltibia -4.84862
lfoot -23.2056 51.6973
ltoes 8.86183
333
root 0.531378 17.5028 9.55534 6.63518 -2.37983 -9.36501
lowerback -1.81708 0.617049 6.21422
upperback -11.2438 1.2566 1.85476
thorax -10.9406 0.133593 -1.55735
lowerneck 2.0457 -2.48705 -3.86397
upperneck -12.7363 -1.92127 14.7436
head -3.88267 -1.4958 5.27416
rclavicle -7.05686e-015 2.26615e-014
rhumerus 13.9309 31.497 -60.2589
rradius 146.25
rwrist 18.7041
rhand -29.7868 -33.0212
rfingers 7.12502
rthumb -3.1116 -62.9783
lclavicle -7.05686e-015 2.26615e-014
lhumerus 12.7873 -39.7906 70.1529
lradius 147.743
lwrist 5.78363
lhand -37.8385 -26.2263
lfingers 7.12502
lthumb -10.8835 3.47169
rfemur -3.45599 20.8458 27.6477
rtibia 8.30225
rfoot -13.1411 -19.1251
rtoes -0.481781
lfemur 11.9422 -43.6295 -16.0713
ltibia -4.79058
lfoot -23.3798 51.7049
ltoes 9.11172
334
root 0.542076 17.4914 9.54177 6.99054 -2.73259 -9.36353
lowerback -1.92891 0.790263 6.31226
upperback -11.2995 1.48577 1.8408
thorax -10.9202 0.234971 -1.6414
lowerneck 2.11831 -2.44286 -3.71893
upperneck -13.908 -1.73321 14.6272
head -4.26876 -1.44628 5.24057
rclavicle -8.34896e-015 -1.82882e-014
rhumerus 14.2713 33.6503 -61.184
rradius 145.676
rwrist 17.93
rhand -29.1277 -32.5117
rfingers 7.12502
rthumb -2.47502 -62.4771
lclavicle -8.34896e-015 -1.82882e-014
lhumerus 12.289 -42.2793 71.7263
lradius 147.088
lwrist 5.58831
lhand -37.6434 -26.1931
lfingers 7.12502
lthumb -10.6953 3.51464
rfemur -4.17886 20.5873 27.3344
rtibia 8.63536
rfoot -13.0929 -18.5045
rtoes -0.629805
lfemur 11.4858 -43.6777 -15.908
ltibia -4.67223
lfoot -23.9189 51.98
ltoes 9.73223
335
root 0.53673 17.5002 9.54776 6.64799 -2.29486 -9.26194
lowerback -1.77902 0.588971 6.09059
upperback -11.1409 1.21408 1.88497
thorax -10.847 0.130502 -1.45474
lowerneck 2.29483 -2.3209 -3.52328
upperneck -15.0697 -1.4394 14.4971
head -4.68397 -1.35071 5.19286
rclavicle -5.66536e-015 4.17448e-014
rhumerus 14.9623 35.8484 -62.0573
rradius 145.119
rwrist 17.0799
rhand -28.1149 -32.3944
rfingers 7.12502
rthumb -1.49692 -62.3689
lclavicle -5.66536e-015 4.17448e-014
lhumerus 11.5877 -44.4693 73.4334
lradius 146.417
lwrist 5.29311
lhand -37.2698 -26.4195
lfingers 7.12502
lthumb -10.3349 3.30656
rfemur -3.52525 20.8252 27.4874
rtibia 8.31768
rfoot -13.1407 -19.191
rtoes -0.204428
lfemur 11.7257 -43.5307 -16.0462
ltibia -4.712
lfoot -23.0839 51.5414
ltoes 8.92057
336
root 0.535203 17.504 9.54627 6.57892 -2.13629 -9.17229
lowerback -1.72415 0.469828 5.93817
upperback -11.0905 1.05019 1.90232
thorax -10.8328 0.0667496 -1.34061
lowerneck 2.36184 -2.15643 -3.28403
upperneck -16.0451 -1.10155 14.3941
head -5.03031 -1.22841 5.13695
rclavicle 4.87022e-015 3.45885e-014
rhumerus 15.8586 37.8337 -62.9107
rradius 144.148
rwrist 17.8251
rhand -27.3794 -33.0057
rfingers 7.12502
rthumb -0.786537 -62.984
lclavicle 4.87022e-015 3.45885e-014
lhumerus 10.6322 -46.6028 75.3164
lradius 145.738
lwrist 4.64465
lhand -36.7207 -26.7953
lfingers 7.12502
lthumb -9.80516 2.95642
rfemur -3.37984 20.9559 27.4545
rtibia 8.22761
rfoot -13.1607 -19.4752
rtoes -0.0486086
lfemur 11.6706 -43.4386 -16.0568
ltibia -4.70928
lfoot -22.6711 51.3422
ltoes 8.46848
337
root 0.537018 17.5021 9.53758 6.74207 -2.32425 -9.21222
lowerback -1.69125 0.503324 6.00903
upperback -11.1142 1.10315 1.91945
thorax -10.8774 0.0851889 -1.36525
lowerneck 2.29816 -2.01861 -2.99526
upperneck -16.9528 -0.824172 14.1563
head -5.33114 -1.1243 5.02631
rclavicle -6.36111e-015 1.39149e-014
rhumerus 16.7202 39.2615 -63.8767
rradius 142.958
rwrist 18.9241
rhand -26.3045 -33.2839
rfingers 7.12502
rthumb 0.251682 -63.2635
lclavicle -6.36111e-015 1.39149e-014
lhumerus 9.94656 -48.7372 77.091
lradius 144.826
lwrist 3.58947
lhand -36.7747 -27.1526
lfingers 7.12502
lthumb -9.8573 2.5967
rfemur -3.70443 20.952 27.3857
rtibia 8.38159
rfoot -13.1399 -19.293
rtoes -0.2226
lfemur 11.4898 -43.4495 -15.9188
ltibia -4.71696
lfoot -22.8851 51.4985
ltoes 8.66494
338
root 0.546543 17.4922 9.52289 7.12176 -2.67417 -9.35023
lowerback -1.72805 0.658954 6.33789
upperback -11.1922 1.32699 1.9101
thorax -10.931 0.160019 -1.57269
lowerneck 1.48923 -2.17198 -2.7209
upperneck -17.2809 -1.0122 13.9736
head -5.27875 -1.20342 4.92445
rclavicle 3.08116e-015 -3.97569e-016
rhumerus 17.4442 40.4591 -64.9987
rradius 141.621
rwrist 20.5226
rhand -25.3507 -33.2829
rfingers 7.12502
rthumb 1.17283 -63.2594
lclavicle 3.08116e-015 -3.97569e-016
lhumerus 10.0259 -50.3482 78.3264
lradius 143.731
lwrist 2.84117
lhand -37.4439 -27.0377
lfingers 7.12502
lthumb -10.5029 2.6799
rfemur -4.43332 20.7845 27.2519
rtibia 8.69028
rfoot -13.0414 -18.7555
rtoes -0.616495
lfemur 11.0295 -43.4713 -15.5435
ltibia -4.6806
lfoot -23.4864 51.7621
ltoes 9.36783
339
root 0.542527 17.5015 9.52413 6.81203 -2.41324 -9.32059
lowerback -1.42825 0.586526 6.34574
upperback -11.0708 1.24567 1.85333
thorax -10.976 0.117125 -1.6364
lowerneck 1.34508 -2.20497 -2.59624
upperneck -18.1329 -0.963165 13.936
head -5.52378 -1.2081 4.91409
rclavicle 5.56597e-015 7.95139e-016
rhumerus 17.948 41.3121 -66.3842
rradius 140.29
rwrist 21.3217
rhand -24.9985 -32.5463
rfingers 7.12502
rthumb 1.51306 -62.5207
lclavicle 5.56597e-015 7.95139e-016
lhumerus 10.1728 -51.7875 79.4495
lradius 142.834
lwrist 2.80522
lhand -37.6177 -26.6401
lfingers 7.12502
lthumb -10.6705 3.06893
rfemur -3.86836 21.0589 27.4528
rtibia 8.44236
rfoot -13.079 -19.2796
rtoes -0.0992382
lfemur 11.3226 -43.309 -15.6696
ltibia -4.74184
lfoot -23.0253 51.4336
ltoes 8.9202
340
root 0.541845 17.5049 9.51931 6.73927 -2.36097 -9.26251
lowerback -1.24382 0.639022 6.36791
upperback -11.0498 1.3242 1.74735
thorax -11.0545 0.145358 -1.77135
lowerneck 1.54895 -2.2154 -2.55312
upperneck -19.2377 -0.848015 13.9584
head -5.91552 -1.19944 4.95061
rclavicle -2.56432e-014 5.88403e-014
rhumerus 18.3963 42.1951 -67.5075
rradius 139.443
rwrist 21.0174
rhand -23.9764 -31.9516
rfingers 7.12502
rthumb 2.50013 -61.9167
lclavicle -2.56432e-014 5.88403e-014
lhumerus 9.9432 -53.2675 80.8909
lradius 142.098
lwrist 2.9825
lhand -37.1222 -26.4415
lfingers 7.12502
lthumb -10.1926 3.29156
rfemur -3.74362 21.2158 27.4433
rtibia 8.3765
rfoot -13.0699 -19.4973
rtoes 0.00784398
lfemur 11.3915 -43.3776 -15.7751
ltibia -4.74363
lfoot -23.0441 51.4408
ltoes 8.91912
341
root 0.543006 17.5064 9.51144 6.77974 -2.38411 -9.17066
lowerback -1.07784 0.687974 6.36481
upperback -11.0785 1.40007 1.67365
thorax -11.1807 0.174128 -1.85714
lowerneck 1.65817 -2.18057 -2.63443
upperneck -20.2537 -0.687758 14.0023
head -6.26828 -1.15552 5.01109
rclavicle -6.06293e-015 8.74653e-015
rhumerus 18.9997 43.3119 -68.232
rradius 138.779
rwrist 20.9101
rhand -23.0567 -32.4581
rfingers 7.12502
rthumb 3.38832 -62.4109
lclavicle -6.06293e-015 8.74653e-015
lhumerus 9.47608 -54.37 82.4512
lradius 141.444
lwrist 2.98769
lhand -36.3246 -26.1895
lfingers 7.12502
lthumb -9.42298 3.57982
rfemur -3.82702 21.2593 27.3045
rtibia 8.38512
rfoot -13.0112 -19.5407
rtoes -0.293883
lfemur 11.3818 -43.5774 -15.9051
ltibia -4.76249
lfoot -23.0767 51.6395
ltoes 8.96364
342
root 0.545328 17.509 9.50361 6.84323 -2.36568 -9.12662
lowerback -0.882236 0.630619 6.40054
upperback -11.1496 1.34572 1.67913
thorax -11.3878 0.137037 -1.86833
lowerneck 1.67682 -2.03882 -2.6787
upperneck -21.0498 -0.424012 13.9273
head -6.55003 -1.04617 5.01199
rclavicle 9.14409e-015 7.95139e-016
rhumerus 19.703 44.8879 -68.7755
rradius 137.898
rwrist 21.9749
rhand -23.1698 -34.3359
rfingers 7.12502
rthumb 3.27913 -64.2904
lclavicle 9.14409e-015 7.95139e-016
lhumerus 8.84536 -55.0191 83.8967
lradius 140.924
lwrist 2.9121
lhand -35.4863 -25.8309
lfingers 7.12502
lthumb -8.61411 3.97337
rfemur -3.92152 21.2878 27.2079
rtibia 8.36881
rfoot -12.9946 -19.561
rtoes -0.157166
lfemur 11.2651 -43.6545 -15.8844
ltibia -4.77618
lfoot -22.8795 51.7251
ltoes 8.78281
343
root 0.547915 17.5115 9.49727 6.92829 -2.34388 -9.17595
lowerback -0.733645 0.562796 6.51259
upperback -11.2184 1.28004 1.71457
thorax -11.5665 0.0896751 -1.88728
lowerneck 1.60257 -1.87656 -2.63331
upperneck -21.6704 -0.156445 13.7883
head -6.76318 -0.928282 4.96705
rclavicle 3.77691e-015 1.98785e-014
rhumerus 20.3753 46.1439 -69.5018
rradius 137.114
rwrist 22.0763
rhand -22.7719 -34.8263
rfingers 7.12502
rthumb 3.66334 -64.7746
lclavicle 3.77691e-015 1.98785e-014
lhumerus 8.48799 -55.5477 84.8548
lradius 140.474
lwrist 3.12182
lhand -35.1133 -25.5519
lfingers 7.12502
lthumb -8.2541 4.26686
rfemur -4.02399 21.2787 27.2134
rtibia 8.32203
rfoot -12.9292 -19.5572
rtoes -0.148074
lfemur 11.0332 -43.5061 -15.6301
ltibia -4.80494
lfoot -22.5926 51.626
ltoes 8.57673
